<?xml version="1.0" standalone="no"?>
<!DOCTYPE svg PUBLIC "-//W3C//DTD SVG 20010904//EN"
 "http://www.w3.org/TR/2001/REC-SVG-20010904/DTD/svg10.dtd">
<svg version="1.0" xmlns="http://www.w3.org/2000/svg"
 width="640.000000pt" height="640.000000pt" viewBox="0 0 640.000000 640.000000"
 preserveAspectRatio="xMidYMid meet">

<g transform="translate(0.000000,640.000000) scale(0.100000,-0.100000)"
fill="#000000" stroke="none">
<path d="M0 6340 c0 -33 6 -70 13 -81 10 -17 10 -23 0 -26 -18 -7 -18 -434 0
-464 9 -17 9 -23 0 -26 -10 -4 -13 -59 -13 -233 0 -208 2 -228 18 -235 16 -6
16 -7 0 -19 -16 -12 -18 -36 -18 -239 0 -171 3 -226 13 -230 9 -3 9 -9 0 -26
-18 -30 -18 -457 0 -464 9 -3 9 -9 0 -26 -18 -29 -18 -452 -1 -469 9 -9 9 -15
0 -24 -17 -17 -17 -449 0 -466 9 -9 9 -15 0 -24 -17 -17 -17 -449 0 -466 9 -9
9 -15 0 -24 -17 -17 -17 -440 0 -469 11 -17 11 -23 0 -26 -9 -4 -12 -59 -12
-233 0 -208 2 -228 18 -235 16 -6 16 -7 0 -19 -16 -12 -18 -36 -18 -239 0
-205 2 -225 18 -232 16 -6 16 -7 0 -19 -16 -12 -18 -36 -18 -239 0 -171 3
-226 13 -230 10 -3 10 -9 0 -26 -18 -30 -18 -457 0 -464 9 -3 9 -9 0 -26 -9
-14 -13 -71 -13 -181 l0 -160 3200 0 3200 0 0 165 c0 146 -2 165 -17 174 -17
10 -17 12 0 25 15 12 17 35 17 231 0 188 -2 221 -16 237 -16 16 -16 18 0 24
14 5 16 32 16 234 0 208 -2 228 -17 235 -17 6 -17 7 0 19 15 12 17 36 17 239
0 205 -2 225 -17 232 -17 6 -17 7 0 19 15 12 17 36 17 239 0 205 -2 225 -17
232 -17 6 -17 7 0 19 15 12 17 36 17 239 0 191 -2 226 -15 231 -8 3 -15 10
-15 16 0 5 7 10 15 10 13 0 15 32 15 226 0 204 -2 228 -17 240 -17 13 -17 15
0 28 15 12 17 36 17 234 0 200 -2 222 -17 231 -17 10 -17 12 -1 25 16 12 18
36 18 240 0 194 -2 226 -15 226 -8 0 -15 5 -15 10 0 6 7 13 15 16 13 5 15 41
15 234 0 208 -2 228 -17 235 -17 6 -17 7 0 19 15 12 17 36 17 239 0 205 -2
225 -17 232 -17 6 -17 7 0 19 15 12 17 36 17 239 0 205 -2 225 -17 232 -17 6
-17 7 0 19 15 12 17 35 17 236 0 201 -2 224 -17 236 -17 12 -17 13 0 19 14 6
17 20 17 76 l0 69 -3200 0 -3200 0 0 -60z m510 -96 c0 -16 -16 -19 -25 -4 -8
13 4 32 16 25 5 -4 9 -13 9 -21z m2453 -5 c-17 -17 -37 -1 -22 17 8 10 15 12
23 4 7 -7 7 -13 -1 -21z m497 5 c0 -16 -16 -19 -25 -4 -8 13 4 32 16 25 5 -4
9 -13 9 -21z m490 0 c0 -8 -7 -14 -15 -14 -15 0 -21 21 -9 33 10 9 24 -2 24
-19z m490 0 c0 -8 -7 -14 -15 -14 -15 0 -21 21 -9 33 10 9 24 -2 24 -19z m490
-8 c-13 -13 -35 7 -25 24 5 8 11 8 21 -1 10 -8 12 -15 4 -23z m-3929 9 c-1
-15 -24 -12 -29 3 -3 9 2 13 12 10 10 -1 17 -7 17 -13z m494 6 c7 -12 -12 -24
-25 -16 -11 7 -4 25 10 25 5 0 11 -4 15 -9z m495 0 c0 -14 -18 -23 -30 -16 -6
4 -8 11 -5 16 8 12 35 12 35 0z m490 0 c0 -14 -18 -23 -30 -16 -6 4 -8 11 -5
16 8 12 35 12 35 0z m2941 -6 c-1 -15 -24 -12 -29 3 -3 9 2 13 12 10 10 -1 17
-7 17 -13z m494 6 c7 -12 -12 -24 -25 -16 -11 7 -4 25 10 25 5 0 11 -4 15 -9z
m-5405 -497 c0 -16 -16 -19 -25 -4 -8 13 4 32 16 25 5 -4 9 -13 9 -21z m2456
-11 c-3 -3 -13 -3 -22 1 -13 5 -14 9 -3 22 11 14 13 14 22 -1 5 -9 6 -19 3
-22z m494 11 c0 -14 -21 -19 -33 -7 -9 9 13 34 24 27 5 -3 9 -12 9 -20z m490
0 c0 -8 -7 -14 -15 -14 -15 0 -21 21 -9 33 10 9 24 -2 24 -19z m-2949 1 c-1
-15 -24 -12 -29 3 -3 9 2 13 12 10 10 -1 17 -7 17 -13z m494 6 c7 -12 -12 -24
-25 -16 -11 7 -4 25 10 25 5 0 11 -4 15 -9z m495 0 c0 -14 -18 -23 -30 -16 -6
4 -8 11 -5 16 8 12 35 12 35 0z m485 0 c7 -12 -12 -24 -25 -16 -11 7 -4 25 10
25 5 0 11 -4 15 -9z m1965 -6 c0 -8 -7 -15 -15 -15 -8 0 -15 7 -15 15 0 8 7
15 15 15 8 0 15 -7 15 -15z m493 0 c1 -5 -6 -11 -15 -13 -11 -2 -18 3 -18 13
0 17 30 18 33 0z m488 0 c-1 -15 -24 -12 -29 3 -3 9 2 13 12 10 10 -1 17 -7
17 -13z m497 3 c-3 -7 -11 -13 -18 -13 -7 0 -15 6 -17 13 -3 7 4 12 17 12 13
0 20 -5 18 -12z m-5403 -487 c7 -12 -12 -24 -25 -16 -11 7 -4 25 10 25 5 0 11
-4 15 -9z m490 -1 c3 -6 -1 -13 -10 -16 -19 -8 -30 0 -20 15 8 14 22 14 30 1z
m490 1 c7 -12 -12 -24 -25 -16 -11 7 -4 25 10 25 5 0 11 -4 15 -9z m490 0 c7
-12 -12 -24 -25 -16 -11 7 -4 25 10 25 5 0 11 -4 15 -9z m490 0 c7 -12 -12
-24 -25 -16 -11 7 -4 25 10 25 5 0 11 -4 15 -9z m495 -6 c0 -8 -6 -15 -14 -15
-17 0 -28 14 -19 24 12 12 33 6 33 -9z m490 0 c0 -8 -6 -15 -14 -15 -17 0 -28
14 -19 24 12 12 33 6 33 -9z m488 -2 c-4 -22 -22 -20 -26 1 -2 10 3 16 13 16
10 0 15 -7 13 -17z m495 2 c1 -5 -6 -11 -15 -13 -11 -2 -18 3 -18 13 0 17 30
18 33 0z m490 8 c9 -9 -13 -34 -24 -27 -14 8 -11 34 4 34 8 0 17 -3 20 -7z
m492 -2 c7 -12 -12 -24 -25 -16 -11 7 -4 25 10 25 5 0 11 -4 15 -9z m490 0 c7
-12 -12 -24 -25 -16 -11 7 -4 25 10 25 5 0 11 -4 15 -9z m-2395 -243 c30 -13
74 -34 97 -46 49 -25 152 -128 179 -178 13 -23 26 -34 41 -34 42 0 146 -42
206 -84 106 -72 192 -207 203 -317 10 -99 5 -94 96 -113 114 -25 190 -66 266
-143 72 -75 112 -147 137 -253 22 -89 22 -146 0 -231 -48 -190 -180 -328 -369
-387 -45 -14 -176 -16 -1136 -19 -1065 -4 -1087 -3 -1175 17 -49 11 -114 33
-143 47 -87 44 -191 140 -240 222 -23 39 -42 75 -42 80 0 5 -9 37 -20 71 -40
126 -21 281 52 416 37 68 148 181 214 218 65 36 157 67 221 73 l52 6 17 54
c34 106 106 205 194 265 82 56 160 79 271 79 54 0 117 -5 141 -11 28 -8 44 -8
46 -2 9 29 73 113 119 157 47 45 92 73 185 116 49 22 102 28 218 24 93 -3 125
-8 170 -27z m-3006 -247 c3 -5 0 -14 -8 -20 -10 -9 -15 -8 -19 3 -9 22 15 37
27 17z m491 -1 c3 -6 -1 -13 -10 -16 -19 -8 -30 0 -20 15 8 14 22 14 30 1z
m488 4 c3 -3 3 -12 0 -20 -4 -11 -9 -12 -19 -3 -8 6 -11 15 -8 20 6 10 18 12
27 3z m492 -5 c10 -15 -1 -23 -20 -15 -9 3 -13 10 -10 16 8 13 22 13 30 -1z
m490 2 c7 -12 -12 -24 -25 -16 -11 7 -4 25 10 25 5 0 11 -4 15 -9z m1473 -8
c-4 -22 -22 -20 -26 1 -2 10 3 16 13 16 10 0 15 -7 13 -17z m495 10 c9 -9 -13
-34 -24 -27 -14 8 -11 34 4 34 8 0 17 -3 20 -7z m491 -2 c3 -5 -1 -14 -8 -20
-16 -13 -32 2 -21 19 8 12 22 13 29 1z m491 -1 c3 -6 -1 -13 -10 -16 -19 -8
-30 0 -20 15 8 14 22 14 30 1z m490 1 c7 -12 -12 -24 -25 -16 -11 7 -4 25 10
25 5 0 11 -4 15 -9z m-5405 -495 c0 -8 -4 -17 -9 -21 -12 -7 -24 12 -16 25 9
15 25 12 25 -4z m494 5 c3 -5 -1 -14 -8 -20 -16 -13 -32 2 -21 19 8 12 22 13
29 1z m494 -9 c2 -7 -6 -12 -17 -12 -21 0 -27 11 -14 24 9 9 26 2 31 -12z
m2940 1 c-4 -22 -22 -20 -26 1 -2 10 3 16 13 16 10 0 15 -7 13 -17z m496 8 c3
-5 -1 -14 -8 -20 -16 -13 -32 2 -21 19 8 12 22 13 29 1z m491 -1 c3 -6 -1 -13
-10 -16 -19 -8 -30 0 -20 15 8 14 22 14 30 1z m491 -1 c8 -14 -18 -31 -30 -19
-9 9 0 30 14 30 5 0 12 -5 16 -11z m-5406 -493 c0 -8 -4 -17 -9 -21 -12 -7
-24 12 -16 25 9 15 25 12 25 -4z m496 3 c10 -17 -13 -36 -27 -22 -12 12 -4 33
11 33 5 0 12 -5 16 -11z m490 0 c10 -17 -13 -36 -27 -22 -12 12 -4 33 11 33 5
0 12 -5 16 -11z m3434 -3 c0 -8 -4 -17 -9 -21 -12 -7 -24 12 -16 25 9 15 25
12 25 -4z m496 3 c10 -17 -13 -36 -27 -22 -12 12 -4 33 11 33 5 0 12 -5 16
-11z m490 0 c10 -17 -13 -36 -27 -22 -12 12 -4 33 11 33 5 0 12 -5 16 -11z
m-5406 -493 c0 -8 -4 -17 -9 -21 -12 -7 -24 12 -16 25 9 15 25 12 25 -4z m490
-6 c0 -21 -15 -27 -25 -10 -7 12 2 30 16 30 5 0 9 -9 9 -20z m496 9 c10 -17
-13 -36 -27 -22 -12 12 -4 33 11 33 5 0 12 -5 16 -11z m3429 -19 c-5 -8 -11
-8 -17 -2 -6 6 -7 16 -3 22 5 8 11 8 17 2 6 -6 7 -16 3 -22z m499 22 c2 -4 1
-14 -4 -22 -7 -11 -12 -12 -21 -3 -6 6 -8 16 -5 22 8 13 23 14 30 3z m492 -3
c10 -17 -13 -36 -27 -22 -12 12 -4 33 11 33 5 0 12 -5 16 -11z m-3228 -261 c4
-62 -12 -120 -45 -159 -30 -35 -94 -68 -132 -69 -13 0 -29 -7 -36 -17 -12 -16
-40 -9 -30 8 4 5 -8 9 -24 9 -20 0 -31 -5 -31 -14 0 -21 -74 -83 -109 -91
-113 -25 -221 80 -191 184 33 116 156 158 248 84 20 -16 41 -39 47 -51 9 -20
18 -22 83 -22 68 0 76 2 103 29 25 26 29 37 29 89 0 32 3 62 7 66 4 4 23 6 43
4 34 -3 35 -4 38 -50z m260 -82 c1 -77 7 -135 14 -143 8 -10 8 -17 0 -25 -7
-7 -12 -47 -12 -103 0 -76 -4 -96 -23 -127 -44 -72 -107 -98 -238 -98 -40 0
-59 -4 -59 -12 -1 -20 -42 -64 -77 -82 -112 -56 -246 39 -228 161 12 85 102
144 191 127 40 -7 114 -71 114 -97 0 -24 128 -24 177 0 58 27 63 53 63 301 0
120 3 222 7 226 4 4 21 6 38 4 l30 -3 3 -129z m260 -166 l3 -295 32 -16 c74
-36 101 -140 54 -210 -52 -77 -133 -99 -206 -57 -61 35 -84 77 -79 143 5 63
28 101 76 124 l32 16 0 291 c0 160 3 294 7 298 4 4 23 6 43 4 l35 -3 3 -295z
m247 291 c3 -5 5 -108 6 -229 0 -295 9 -312 160 -312 76 0 77 0 89 31 22 52
72 82 138 83 62 1 106 -22 138 -73 27 -40 21 -123 -11 -165 -69 -90 -187 -88
-259 7 -26 34 -27 34 -120 40 -97 5 -124 14 -164 51 -54 48 -57 64 -60 314 -2
128 -1 240 2 248 6 16 71 20 81 5z m273 -56 c1 -33 8 -71 15 -84 16 -32 64
-51 130 -51 51 0 55 2 78 38 27 41 97 82 142 82 43 0 102 -37 126 -80 54 -96
-6 -213 -116 -226 -62 -8 -108 12 -158 67 -32 36 -39 39 -87 39 -58 0 -133 22
-162 48 -33 30 -56 93 -56 158 0 33 3 64 7 68 4 4 23 6 43 4 l35 -3 3 -60z
m-3218 -231 c0 -16 -16 -19 -25 -4 -8 13 4 32 16 25 5 -4 9 -13 9 -21z m3930
0 c0 -16 -16 -19 -25 -4 -8 13 4 32 16 25 5 -4 9 -13 9 -21z m490 -8 c-13 -13
-35 7 -25 24 5 8 11 8 21 -1 10 -8 12 -15 4 -23z m990 14 c0 -5 -5 -12 -11
-16 -14 -8 -33 11 -25 25 7 11 36 4 36 -9z m-4919 -5 c-1 -15 -24 -12 -29 3
-3 9 2 13 12 10 10 -1 17 -7 17 -13z m497 3 c-3 -7 -11 -13 -18 -13 -7 0 -15
6 -17 13 -3 7 4 12 17 12 13 0 20 -5 18 -12z m492 3 c0 -14 -18 -23 -30 -16
-6 4 -8 11 -5 16 8 12 35 12 35 0z m3431 -6 c-1 -15 -24 -12 -29 3 -3 9 2 13
12 10 10 -1 17 -7 17 -13z m-4911 -491 c0 -16 -16 -19 -25 -4 -8 13 4 32 16
25 5 -4 9 -13 9 -21z m2460 0 c0 -14 -21 -19 -33 -7 -9 9 13 34 24 27 5 -3 9
-12 9 -20z m490 0 c0 -14 -21 -19 -33 -7 -9 9 13 34 24 27 5 -3 9 -12 9 -20z
m490 0 c0 -8 -7 -14 -15 -14 -15 0 -21 21 -9 33 10 9 24 -2 24 -19z m-2949 1
c-1 -15 -24 -12 -29 3 -3 9 2 13 12 10 10 -1 17 -7 17 -13z m494 6 c7 -12 -12
-24 -25 -16 -11 7 -4 25 10 25 5 0 11 -4 15 -9z m495 0 c0 -14 -18 -23 -30
-16 -6 4 -8 11 -5 16 8 12 35 12 35 0z m490 0 c0 -14 -18 -23 -30 -16 -6 4 -8
11 -5 16 8 12 35 12 35 0z m1963 -6 c1 -5 -6 -11 -15 -13 -11 -2 -18 3 -18 13
0 17 30 18 33 0z m490 0 c1 -5 -6 -11 -15 -13 -11 -2 -18 3 -18 13 0 17 30 18
33 0z m488 0 c-1 -15 -24 -12 -29 3 -3 9 2 13 12 10 10 -1 17 -7 17 -13z m497
3 c-3 -7 -11 -13 -18 -13 -7 0 -15 6 -17 13 -3 7 4 12 17 12 13 0 20 -5 18
-12z m-3096 -310 c18 -6 37 -14 41 -18 10 -9 -27 -100 -40 -100 -4 0 -28 7
-53 16 -26 9 -61 14 -83 11 -74 -10 -107 -65 -107 -178 0 -134 47 -181 162
-162 35 6 72 13 83 15 18 3 20 -3 23 -49 4 -69 -11 -77 -143 -77 -92 0 -104 2
-148 28 -83 49 -117 125 -117 258 0 143 71 244 190 269 43 10 146 3 192 -13z
m458 -31 c0 -24 -5 -48 -12 -55 -8 -8 -45 -12 -100 -12 l-88 0 0 -65 0 -65 89
0 c97 0 101 -2 91 -60 l-5 -35 -87 -3 -87 -3 -3 -102 -3 -102 -65 0 -65 0 -2
30 c-5 80 -3 497 2 505 4 6 76 10 171 10 l164 0 0 -43z m308 -114 c28 -87 54
-170 57 -185 4 -16 10 -28 15 -28 4 0 34 82 67 183 l60 182 89 0 89 0 0 -270
0 -270 -62 -3 -63 -3 0 173 c0 103 -4 167 -9 158 -5 -8 -32 -86 -61 -172 l-51
-158 -62 0 -62 0 -49 163 c-27 89 -53 168 -57 176 -4 8 -6 -64 -5 -160 l1
-174 -58 0 -58 0 -2 273 -2 272 87 0 86 0 50 -157z m-3077 -38 c-1 -15 -24
-12 -29 3 -3 9 2 13 12 10 10 -1 17 -7 17 -13z m490 0 c-1 -15 -24 -12 -29 3
-3 9 2 13 12 10 10 -1 17 -7 17 -13z m494 6 c7 -12 -12 -24 -25 -16 -11 7 -4
25 10 25 5 0 11 -4 15 -9z m490 0 c7 -12 -12 -24 -25 -16 -11 7 -4 25 10 25 5
0 11 -4 15 -9z m2458 -6 c1 -5 -6 -11 -15 -13 -11 -2 -18 3 -18 13 0 17 30 18
33 0z m488 0 c-1 -15 -24 -12 -29 3 -3 9 2 13 12 10 10 -1 17 -7 17 -13z m494
6 c7 -12 -12 -24 -25 -16 -11 7 -4 25 10 25 5 0 11 -4 15 -9z m490 0 c7 -12
-12 -24 -25 -16 -11 7 -4 25 10 25 5 0 11 -4 15 -9z m-5401 -490 c3 -5 -1 -14
-8 -20 -16 -13 -32 2 -21 19 8 12 22 13 29 1z m489 -6 c1 -5 -6 -11 -15 -13
-11 -2 -18 3 -18 13 0 17 30 18 33 0z m492 6 c7 -12 -12 -24 -25 -16 -11 7 -4
25 10 25 5 0 11 -4 15 -9z m490 0 c7 -12 -12 -24 -25 -16 -11 7 -4 25 10 25 5
0 11 -4 15 -9z m490 0 c7 -12 -12 -24 -25 -16 -11 7 -4 25 10 25 5 0 11 -4 15
-9z m495 -6 c0 -8 -6 -15 -14 -15 -17 0 -28 14 -19 24 12 12 33 6 33 -9z m490
0 c0 -8 -7 -15 -15 -15 -8 0 -15 7 -15 15 0 8 7 15 15 15 8 0 15 -7 15 -15z
m488 -2 c-4 -22 -22 -20 -26 1 -2 10 3 16 13 16 10 0 15 -7 13 -17z m495 2 c1
-5 -6 -11 -15 -13 -11 -2 -18 3 -18 13 0 17 30 18 33 0z m490 8 c9 -9 -13 -34
-24 -27 -14 8 -11 34 4 34 8 0 17 -3 20 -7z m492 -2 c7 -12 -12 -24 -25 -16
-11 7 -4 25 10 25 5 0 11 -4 15 -9z m490 0 c7 -12 -12 -24 -25 -16 -11 7 -4
25 10 25 5 0 11 -4 15 -9z m-5401 -490 c3 -5 -1 -14 -8 -20 -16 -13 -32 2 -21
19 8 12 22 13 29 1z m491 -1 c3 -6 -1 -13 -10 -16 -19 -8 -30 0 -20 15 8 14
22 14 30 1z m490 1 c7 -12 -12 -24 -25 -16 -11 7 -4 25 10 25 5 0 11 -4 15 -9z
m490 -2 c10 -15 -1 -23 -20 -15 -9 3 -13 10 -10 16 8 13 22 13 30 -1z m490 0
c10 -15 -1 -23 -20 -15 -9 3 -13 10 -10 16 8 13 22 13 30 -1z m490 1 c11 -17
-5 -32 -21 -19 -7 6 -11 15 -8 20 7 12 21 11 29 -1z m493 -7 c-4 -22 -22 -20
-26 1 -2 10 3 16 13 16 10 0 15 -7 13 -17z m490 0 c-4 -22 -22 -20 -26 1 -2
10 3 16 13 16 10 0 15 -7 13 -17z m495 10 c9 -9 -13 -34 -24 -27 -14 8 -11 34
4 34 8 0 17 -3 20 -7z m491 -2 c3 -5 -1 -14 -8 -20 -16 -13 -32 2 -21 19 8 12
22 13 29 1z m491 -1 c3 -6 -1 -13 -10 -16 -19 -8 -30 0 -20 15 8 14 22 14 30
1z m489 1 c3 -5 0 -14 -8 -20 -10 -9 -15 -8 -19 3 -9 22 15 37 27 17z m-5404
-495 c0 -8 -4 -17 -9 -21 -12 -7 -24 12 -16 25 9 15 25 12 25 -4z m495 4 c3
-6 -1 -13 -10 -16 -19 -8 -30 0 -20 15 8 14 22 14 30 1z m493 -8 c2 -7 -6 -12
-17 -12 -21 0 -27 11 -14 24 9 9 26 2 31 -12z m488 7 c8 -14 -18 -31 -30 -19
-9 9 0 30 14 30 5 0 12 -5 16 -11z m489 0 c10 -15 -1 -23 -20 -15 -9 3 -13 10
-10 16 8 13 22 13 30 -1z m490 -7 c0 -18 -20 -15 -23 4 -3 10 1 15 10 12 7 -3
13 -10 13 -16z m490 0 c0 -18 -20 -15 -23 4 -3 10 1 15 10 12 7 -3 13 -10 13
-16z m495 4 c0 -8 -4 -17 -9 -21 -12 -7 -24 12 -16 25 9 15 25 12 25 -4z m490
0 c0 -8 -4 -17 -9 -21 -12 -7 -24 12 -16 25 9 15 25 12 25 -4z m490 0 c0 -8
-4 -17 -9 -21 -12 -7 -24 12 -16 25 9 15 25 12 25 -4z m495 4 c3 -6 -1 -13
-10 -16 -19 -8 -30 0 -20 15 8 14 22 14 30 1z m491 -1 c8 -14 -18 -31 -30 -19
-9 9 0 30 14 30 5 0 12 -5 16 -11z"/>
<path d="M3275 4505 c-25 -12 -36 -30 -59 -93 -15 -42 -34 -93 -41 -112 -7
-19 -22 -60 -33 -90 -11 -30 -40 -113 -65 -185 -25 -71 -75 -213 -111 -314
-88 -245 -88 -299 0 -317 75 -15 91 10 184 276 34 96 69 198 79 225 49 132
151 423 157 448 3 15 10 30 15 33 5 3 9 24 9 48 0 72 -70 114 -135 81z"/>
<path d="M2469 4173 c-178 -175 -196 -202 -169 -254 18 -34 320 -329 349 -340
47 -19 111 29 111 82 0 14 -45 67 -130 153 -71 73 -130 136 -130 141 0 5 59
68 130 141 145 147 152 163 101 215 -20 20 -39 29 -62 29 -28 0 -53 -21 -200
-167z"/>
<path d="M3595 4314 c-16 -17 -25 -39 -25 -58 0 -27 19 -50 130 -161 72 -71
130 -132 130 -135 0 -4 -58 -66 -130 -139 -114 -116 -130 -137 -130 -166 0
-25 8 -40 31 -59 17 -14 34 -26 39 -26 34 0 85 41 228 183 156 156 162 163
162 202 0 39 -6 47 -162 203 -90 90 -170 167 -178 172 -28 18 -70 11 -95 -16z"/>
</g>
</svg>
